<?xml version="1.0" standalone="no"?>
<!DOCTYPE svg PUBLIC "-//W3C//DTD SVG 20010904//EN"
 "http://www.w3.org/TR/2001/REC-SVG-20010904/DTD/svg10.dtd">
<svg version="1.0" xmlns="http://www.w3.org/2000/svg"
 width="1221.000000pt" height="437.000000pt" viewBox="0 0 1221.000000 437.000000"
 preserveAspectRatio="xMidYMid meet">

<g transform="translate(0.000000,437.000000) scale(0.100000,-0.100000)"
fill="#000000" stroke="none">
<path d="M1271 4354 c-164 -59 -266 -212 -323 -484 -26 -125 -36 -517 -18
-683 27 -246 89 -408 199 -518 89 -89 150 -113 276 -107 112 6 168 30 246 108
93 92 154 242 190 465 18 110 18 542 0 660 -43 283 -147 473 -298 542 -74 34
-203 42 -272 17z m182 -304 c67 -64 92 -267 84 -670 -6 -291 -18 -383 -58
-467 -39 -80 -115 -93 -164 -29 -64 84 -96 408 -76 773 15 278 46 389 114 418
39 17 64 11 100 -25z"/>
<path d="M460 4344 c-97 -26 -161 -63 -237 -140 -148 -150 -222 -392 -223
-731 -1 -479 132 -776 389 -874 85 -33 224 -37 329 -11 45 12 102 30 127 41
l45 20 0 465 0 466 -220 0 -220 0 0 -135 0 -135 75 0 75 0 0 -226 0 -227 -50
5 c-66 7 -115 45 -156 123 -58 106 -69 187 -68 480 0 236 2 267 22 340 30 106
77 182 138 220 42 27 56 30 123 30 65 0 86 -5 145 -33 37 -17 70 -32 72 -32 2
0 4 71 4 158 l0 159 -26 12 c-88 40 -245 51 -344 25z"/>
<path d="M1905 4338 c-3 -7 -4 -404 -3 -883 l3 -870 318 -3 317 -2 0 150 0
150 -165 0 -165 0 0 735 0 735 -150 0 c-111 0 -152 -3 -155 -12z"/>
<path d="M2560 3465 l0 -885 155 0 155 0 0 370 0 370 145 0 145 0 0 145 0 145
-145 0 -145 0 0 220 0 220 163 0 162 0 108 -722 c60 -398 111 -731 113 -740 5
-16 21 -18 164 -18 87 0 161 4 164 8 3 5 36 228 73 495 37 267 71 483 74 479
4 -4 12 -50 19 -102 34 -269 120 -862 125 -870 4 -6 72 -10 161 -10 151 0 155
1 164 23 5 12 64 392 132 844 l123 823 3 -840 2 -840 345 0 345 0 0 150 0 150
-185 0 -185 0 0 220 0 220 160 0 160 0 0 150 0 150 -160 0 -160 0 0 215 0 215
180 0 180 0 0 150 0 150 -495 0 c-292 0 -495 -4 -495 -9 0 -10 -119 -998 -123
-1021 -1 -8 -33 206 -70 475 -38 270 -71 505 -74 523 l-5 33 -146 -3 -145 -3
-72 -502 c-39 -277 -73 -505 -76 -507 -3 -3 -32 223 -65 502 l-59 507 -458 3
-457 2 0 -885z"/>
<path d="M6084 4341 c-2 -2 -4 -400 -4 -883 l0 -878 155 0 155 0 0 233 0 233
34 99 33 100 21 -70 c11 -38 48 -167 82 -285 33 -118 68 -236 76 -262 l16 -48
170 0 170 0 -6 23 c-3 12 -70 241 -150 510 l-145 487 145 363 c79 199 144 368
144 376 0 8 -6 11 -16 7 -9 -3 -86 -6 -172 -6 l-157 0 -120 -357 -120 -358 -3
358 c-1 196 -6 357 -10 358 -31 3 -295 3 -298 0z"/>
<path d="M5352 3463 l3 -878 340 0 340 0 0 145 0 145 -187 3 -188 2 0 220 0
220 163 2 162 3 0 145 0 145 -162 3 -163 2 0 215 0 215 185 0 185 0 0 145 0
145 -340 0 -340 0 2 -877z"/>
<path d="M7363 2918 l-163 -163 0 -651 c0 -742 -2 -725 86 -904 41 -82 61
-109 148 -196 91 -91 112 -106 206 -152 111 -53 216 -82 299 -82 l51 0 0 165
0 165 -40 0 c-53 0 -153 34 -213 72 -92 59 -172 172 -196 279 -6 24 -11 160
-11 302 l0 257 225 0 225 0 0 165 0 165 -225 0 -225 0 -2 370 -3 370 -162
-162z"/>
<path d="M158 1398 l-3 -943 -32 -67 c-17 -37 -53 -90 -78 -117 l-47 -50 83
-79 c46 -43 101 -94 122 -112 l38 -33 25 24 c79 74 167 223 206 351 l22 73 4
948 3 947 -170 0 -171 0 -2 -942z"/>
<path d="M623 1873 c4 -518 4 -515 73 -660 98 -204 316 -377 541 -427 397 -88
812 161 929 560 15 51 18 119 21 527 l4 467 -165 0 -166 0 0 -397 c0 -219 -5
-425 -10 -458 -5 -33 -26 -93 -45 -133 -163 -330 -622 -338 -798 -13 -51 94
-57 148 -57 594 l0 407 -166 0 -165 0 4 -467z"/>
<path d="M2940 2326 c-173 -37 -343 -140 -456 -276 -50 -62 -126 -207 -151
-290 -14 -47 -17 -126 -20 -522 l-4 -468 165 0 166 0 0 404 c0 232 4 426 10
457 45 238 278 408 511 372 182 -29 338 -171 378 -344 6 -26 11 -218 11 -466
l0 -423 165 0 165 0 0 453 c0 416 -2 460 -19 529 -31 119 -99 242 -186 337
-89 97 -243 191 -370 226 -82 22 -281 28 -365 11z"/>
<path d="M4070 1555 l0 -785 165 0 165 0 0 785 0 785 -165 0 -165 0 0 -785z"/>
<path d="M5140 2325 c-244 -49 -447 -213 -557 -452 -46 -100 -63 -185 -63
-323 0 -126 15 -205 56 -302 117 -279 375 -459 679 -475 223 -12 423 61 587
215 103 96 194 254 224 390 23 105 15 320 -16 412 -92 273 -319 478 -592 534
-91 19 -227 19 -318 1z m241 -325 c216 -41 369 -226 369 -445 0 -213 -136
-385 -347 -440 -146 -38 -314 9 -428 121 -197 194 -170 528 54 681 119 82 225
107 352 83z"/>
<path d="M6858 2330 c-167 -28 -365 -143 -471 -273 -58 -71 -115 -173 -145
-262 l-27 -80 -3 -472 -3 -473 165 0 166 0 0 418 c0 343 3 428 15 477 46 176
189 305 373 337 l72 12 0 163 0 163 -47 -1 c-27 -1 -69 -5 -95 -9z"/>
<path d="M8670 2325 c-292 -60 -527 -282 -606 -575 -28 -100 -25 -301 4 -404
130 -453 615 -693 1049 -519 167 67 328 215 407 375 57 117 76 187 83 313 25
445 -342 829 -789 824 -46 0 -112 -7 -148 -14z m265 -330 c164 -43 287 -166
330 -330 85 -327 -223 -635 -550 -550 -137 36 -249 128 -308 252 -30 65 -32
74 -32 188 0 114 2 123 32 188 94 198 320 306 528 252z"/>
<path d="M9733 1883 c4 -519 5 -521 83 -681 34 -69 66 -113 121 -172 121 -128
246 -202 412 -242 112 -26 280 -21 386 12 264 84 466 287 542 545 15 53 18
118 21 528 l3 467 -165 0 -166 0 0 -418 c0 -454 -3 -485 -57 -584 -88 -161
-242 -246 -425 -236 -225 14 -388 169 -419 398 -4 36 -8 239 -9 453 l0 387
-166 0 -165 0 4 -457z"/>
<path d="M12078 2330 c-68 -12 -143 -37 -223 -77 -180 -90 -316 -241 -385
-431 -44 -121 -50 -197 -50 -643 l0 -409 165 0 165 0 0 388 c0 213 5 419 10
457 29 196 182 353 379 387 l71 12 0 163 0 163 -42 -1 c-24 -1 -64 -5 -90 -9z"/>
</g>
</svg>
